<?xml version="1.0"?>
<svg width="20" height="25"
    xmlns="http://www.w3.org/2000/svg"
    xmlns:svg="http://www.w3.org/2000/svg" enable-background="new 0 0 20 20" version="1.1" xml:space="preserve">
    <style type="text/css">.st0{stroke:#000000;stroke-width:2;stroke-miterlimit:10;}</style>

    <g class="layer">
        <title>Layer 1</title>
        <path d="m15.5,15.3c-1.09,-1.5 -2.69,-2.4 -4.5,-2.4c-2.19,0 -4.19,1.4 -5.19,3.6c-0.7,0.1 -1.41,0.7 -1.61,1.5c-2,-1 -4.2,0.7 -4.2,3.3c0,2 1.31,3.6 3,3.6l13,0c2.2,0 4,-2.1 4,-4.8c0,-3.2 -2.5,-5.2 -4.5,-4.8zm-6,5.6c0.5,0.3 0.61,0.9 0.31,1.4c-0.31,0.5 -0.91,0.6 -1.41,0.3l-2.8,-1.8c-0.3,-0.2 -0.5,-0.5 -0.5,-0.8c0,-0.3 0.2,-0.7 0.5,-0.8l2.8,-1.8c0.5,-0.5 1.09,-0.3 1.41,0.1s0.19,1.1 -0.31,1.4l-1.5,1l1.5,1zm7,-0.2l-2.8,1.8c-0.5,0.3 -1.09,0.2 -1.39,-0.3c-0.31,-0.5 -0.2,-1.1 0.3,-1.4l1.5,-1l-1.5,-1c-0.5,-0.3 -0.61,-0.9 -0.3,-1.4c0.3,-0.5 0.89,-0.6 1.39,-0.3l2.8,1.8c0.31,0.2 0.5,0.5 0.5,0.8c0,0.5 -0.19,0.9 -0.5,1z" fill="#ffa9c0" id="svg_1"/>
        <text fill="#000000" font-family="&#x27;Helvetica Neue&#x27;, Helvetica, Arial-Unicode, Arial, Sans-serif" font-size="5px" font-weight="bold" id="svg_2" style="--darkreader-inline-fill: #e8e6e3;" x="0" y="35">Created by ProSymbols</text>
        <text fill="#000000" font-family="&#x27;Helvetica Neue&#x27;, Helvetica, Arial-Unicode, Arial, Sans-serif" font-size="5px" font-weight="bold" id="svg_3" style="--darkreader-inline-fill: #e8e6e3;" x="0" y="40">from the Noun Project</text>
    </g>
</svg>